<?xml version="1.0" encoding="UTF-8" standalone="no"?>
<!-- Created with Inkscape (http://www.inkscape.org/) -->

<svg
   xmlns:osb="http://www.openswatchbook.org/uri/2009/osb"
   xmlns:dc="http://purl.org/dc/elements/1.1/"
   xmlns:cc="http://creativecommons.org/ns#"
   xmlns:rdf="http://www.w3.org/1999/02/22-rdf-syntax-ns#"
   xmlns:svg="http://www.w3.org/2000/svg"
   xmlns="http://www.w3.org/2000/svg"
   xmlns:xlink="http://www.w3.org/1999/xlink"
   xmlns:sodipodi="http://sodipodi.sourceforge.net/DTD/sodipodi-0.dtd"
   xmlns:inkscape="http://www.inkscape.org/namespaces/inkscape"
   id="svg2"
   sodipodi:version="0.32"
   inkscape:version="0.48.2 r9819"
   width="995.2168"
   height="683.63977"
   version="1.0"
   sodipodi:docname="Earth-crust-cutaway-heroku.svg"
   inkscape:output_extension="org.inkscape.output.svg.inkscape">
  <metadata
     id="metadata7">
    <rdf:RDF>
      <cc:Work
         rdf:about="">
        <dc:format>image/svg+xml</dc:format>
        <dc:type
           rdf:resource="http://purl.org/dc/dcmitype/StillImage" />
        <dc:title />
      </cc:Work>
    </rdf:RDF>
  </metadata>
  <defs
     id="defs5">
    <linearGradient
       id="linearGradient5445"
       osb:paint="solid">
      <stop
         style="stop-color:#000000;stop-opacity:1;"
         offset="0"
         id="stop5447" />
    </linearGradient>
    <linearGradient
       id="linearGradient4005"
       osb:paint="solid">
      <stop
         style="stop-color:#000000;stop-opacity:1;"
         offset="0"
         id="stop4007" />
    </linearGradient>
    <linearGradient
       id="linearGradient3999"
       osb:paint="solid">
      <stop
         style="stop-color:#000000;stop-opacity:1;"
         offset="0"
         id="stop4001" />
    </linearGradient>
    <linearGradient
       id="linearGradient3963"
       osb:paint="solid">
      <stop
         style="stop-color:#000000;stop-opacity:1;"
         offset="0"
         id="stop3965" />
    </linearGradient>
    <linearGradient
       id="linearGradient6189">
      <stop
         style="stop-color:#e9e9ea;stop-opacity:1;"
         offset="0"
         id="stop6191" />
      <stop
         style="stop-color:#000000;stop-opacity:0.94117647;"
         offset="1"
         id="stop6193" />
    </linearGradient>
    <linearGradient
       id="linearGradient4181">
      <stop
         style="stop-color:#cc6708;stop-opacity:1;"
         offset="0"
         id="stop4183" />
      <stop
         id="stop4189"
         offset="0.42095476"
         style="stop-color:#cc6708;stop-opacity:1;" />
      <stop
         style="stop-color:#f6cb99;stop-opacity:1;"
         offset="0.76882708"
         id="stop4191" />
      <stop
         style="stop-color:#f6cb99;stop-opacity:1;"
         offset="1"
         id="stop4185" />
    </linearGradient>
    <linearGradient
       inkscape:collect="always"
       xlink:href="#linearGradient6189"
       id="linearGradient2250"
       gradientUnits="userSpaceOnUse"
       gradientTransform="matrix(2.0319269,0,0,2.0319269,-447.99398,73.44647)"
       x1="624.7962"
       y1="61.403652"
       x2="624.7962"
       y2="293.81601" />
    <linearGradient
       inkscape:collect="always"
       xlink:href="#linearGradient4181"
       id="linearGradient2282"
       gradientUnits="userSpaceOnUse"
       gradientTransform="matrix(2.0319269,0,0,2.0319269,351.30671,15.349503)"
       x1="0"
       y1="76.64286"
       x2="93.391434"
       y2="76.64286" />
  </defs>
  <sodipodi:namedview
     inkscape:window-height="724"
     inkscape:window-width="1362"
     inkscape:pageshadow="2"
     inkscape:pageopacity="0.0"
     guidetolerance="10.0"
     gridtolerance="10.0"
     objecttolerance="10.0"
     borderopacity="1.0"
     bordercolor="#666666"
     pagecolor="#ffffff"
     id="base"
     showguides="true"
     inkscape:guide-bbox="true"
     inkscape:zoom="1.3867201"
     inkscape:cx="120.22359"
     inkscape:cy="381.62"
     inkscape:window-x="0"
     inkscape:window-y="0"
     inkscape:current-layer="svg2"
     height="318px"
     width="474px"
     showgrid="false"
     inkscape:window-maximized="1" />
  <path
     style="fill:#b6dee6;fill-opacity:1;fill-rule:evenodd;stroke:#609cc8;stroke-width:2.03192711px;stroke-linecap:butt;stroke-linejoin:miter;stroke-opacity:1"
     d="M 172.30363,202.85524 L 270.30781,152.73437 C 335.1986,137.965 374.72901,142.2159 422.01294,140.65167 L 341.46155,209.12035 L 172.30363,202.85524 z "
     id="path5162"
     sodipodi:nodetypes="ccccc" />
  <path
     sodipodi:nodetypes="ccccz"
     style="fill:#eaeaeb;fill-opacity:1;fill-rule:evenodd;stroke:#000000;stroke-width:2.03192711;stroke-linecap:butt;stroke-linejoin:miter;stroke-miterlimit:4;stroke-dasharray:none;stroke-dashoffset:0;stroke-opacity:1"
     d="M 586.11801,133.66132 L 437.98511,480.2465 L 303.85733,557.68521 C 303.85733,557.68521 462.63049,204.85608 462.63049,204.85608 C 462.63049,204.85608 555.18389,151.42035 586.03502,133.60844"
     id="path3177" />
  <path
     style="fill:url(#linearGradient2282);fill-opacity:1;fill-rule:evenodd;stroke:#000000;stroke-width:2.03192711px;stroke-linecap:butt;stroke-linejoin:miter;stroke-opacity:1"
     d="M 353.73357,168.52739 C 359.10382,165.80166 361.673,159.49108 367.34031,157.45215 C 370.17564,156.88508 371.04142,158.80402 373.03617,160.30006 C 376.0992,159.28555 381.44796,150.84064 393.60449,148.59194 C 401.5818,148.32412 407.35549,146.00322 414.17281,141.63036 C 418.19145,139.6967 420.82465,141.29331 424.61519,138.14957 C 426.91378,136.42561 429.6191,135.01475 432.20964,133.71947 C 438.126,135.64173 441.11128,138.55885 448.66431,137.20025 C 453.45801,141.41644 458.09456,146.24845 465.4354,146.06046 C 468.02651,146.06046 468.05954,142.0919 472.08056,142.8961 C 495.02697,129.07724 485.08838,141.62646 505.77629,138.42103 C 517.59987,143.13775 530.91919,139.40058 538.89347,138.49395 C 538.58768,144.75934 585.63313,129.28375 586.13077,136.66825 C 541.28669,158.25203 484.5009,198.99736 463.53679,206.81612 C 458.99025,205.74276 445.23279,205.81525 439.80411,201.75315 C 413.83767,200.0559 401.31838,205.8846 397.40171,199.85454 C 373.97581,190.02805 367.63525,181.1426 354.99932,168.84384"
     id="path4179"
     sodipodi:nodetypes="ccccccccccccccccc" />
  <path
     sodipodi:nodetypes="ccccz"
     style="fill:#c6c6c6;fill-opacity:1;fill-rule:evenodd;stroke:#000000;stroke-width:2.03192711;stroke-linecap:butt;stroke-linejoin:miter;stroke-miterlimit:4;stroke-dasharray:none;stroke-dashoffset:0;stroke-opacity:1"
     d="M 586.11801,133.66132 L 470.40812,404.38666 L 349.12354,457.09367 C 349.12354,457.09367 462.63049,204.85608 462.63049,204.85608 C 462.63049,204.85608 555.18389,151.42035 586.03502,133.60844"
     id="path4173" />
  <path
     id="path4175"
     d="M 586.11801,133.66132 L 509.2558,313.49511 L 389.73417,366.84783 C 389.73417,366.84783 462.63049,204.85608 462.63049,204.85608 C 462.63049,204.85608 555.18389,151.42035 586.03502,133.60844"
     style="fill:#f6d485;fill-opacity:1;fill-rule:evenodd;stroke:#000000;stroke-width:2.03192711;stroke-linecap:butt;stroke-linejoin:miter;stroke-miterlimit:4;stroke-dasharray:none;stroke-dashoffset:0;stroke-opacity:1"
     sodipodi:nodetypes="ccccz" />
  <path
     id="path4169"
     d="M 586.11801,133.66132 L 534.26551,254.98013 L 416.80321,306.69444 C 416.80321,306.69444 462.63049,204.85608 462.63049,204.85608 C 462.63049,204.85608 555.18389,151.42035 586.03502,133.60844"
     style="fill:#f8ab70;fill-opacity:1;fill-rule:evenodd;stroke:#000000;stroke-width:2.03192711;stroke-linecap:butt;stroke-linejoin:miter;stroke-miterlimit:4;stroke-dasharray:none;stroke-dashoffset:0;stroke-opacity:1"
     sodipodi:nodetypes="ccccz" />
  <path
     id="path2171"
     d="M 167.91707,201.12047 L 303.85733,557.68521 L 462.31075,205.56658 C 451.31404,206.41164 441.80877,199.25812 431.0645,198.84708 C 422.97437,199.61085 415.0285,198.01813 407.01539,197.58133 C 389.98136,201.15378 369.58471,185.08461 355.7528,167.83638 C 341.75884,166.01826 333.32281,184.84889 321.57774,193.7841 C 271.81016,188.88646 219.87036,183.07915 171.5872,199.47995 C 170.36382,200.02679 169.14044,200.57363 167.91707,201.12047 z "
     style="fill:#958d75;fill-opacity:1;fill-rule:evenodd;stroke:#000000;stroke-width:2.03192711px;stroke-linecap:butt;stroke-linejoin:miter;stroke-opacity:1"
     sodipodi:nodetypes="ccccccccc" />
  <path
     style="fill:#f8ab70;fill-opacity:1;fill-rule:evenodd;stroke:#000000;stroke-width:2.03192711px;stroke-linecap:butt;stroke-linejoin:miter;stroke-opacity:1"
     d="M 181.09502,235.68562 L 303.85733,557.68521 L 441.27109,252.32134 C 416.80938,246.07631 392.20624,241.75686 366.96949,236.41832 C 357.30383,233.77537 347.31673,230.14773 337.43398,227.91567 C 315.50577,224.57838 293.35913,223.92409 271.20283,222.99309 C 240.79403,222.09185 211.02062,231.38987 181.09502,235.68562 z "
     id="path2173"
     sodipodi:nodetypes="ccccccc" />
  <path
     id="path4167"
     d="M 586.11801,133.66132 L 560.33135,193.99413 C 576.5265,184.96707 481.57163,231.51504 442.19176,250.27547 C 442.19176,250.27547 462.63049,204.85608 462.63049,204.85608 C 462.63049,204.85608 555.18389,151.42035 586.03502,133.60844"
     style="fill:#958d75;fill-opacity:1;fill-rule:evenodd;stroke:#000000;stroke-width:2.03192711;stroke-linecap:butt;stroke-linejoin:miter;stroke-miterlimit:4;stroke-dasharray:none;stroke-dashoffset:0;stroke-opacity:1"
     sodipodi:nodetypes="ccccz" />
  <path
     id="path2181"
     d="M 96.964741,15.015964 L 303.85733,557.68521 L 544.43274,23.073284"
     style="fill:none;fill-rule:evenodd;stroke:#a2a2a2;stroke-width:2.03192711;stroke-linecap:butt;stroke-linejoin:miter;stroke-miterlimit:4;stroke-dasharray:6.09578085, 6.09578085;stroke-dashoffset:0;stroke-opacity:1"
     sodipodi:nodetypes="ccc" />
  <path
     style="fill:none;fill-rule:evenodd;stroke:#000000;stroke-width:2.03192711px;stroke-linecap:butt;stroke-linejoin:miter;stroke-opacity:1"
     d="M 494.06168,139.30915 C 490.86568,144.19873 489.74792,148.80629 484.2165,151.39185"
     id="path6161"
     sodipodi:nodetypes="cc" />
  <path
     id="path2175"
     d="M 208.33619,307.13789 L 303.85733,557.68521 L 416.11764,308.21792 L 415.74782,307.12454 C 343.45836,293.46924 273.48618,289.85547 208.33619,307.13789 z "
     style="fill:#f6d485;fill-opacity:1;fill-rule:evenodd;stroke:#000000;stroke-width:2.03192711px;stroke-linecap:butt;stroke-linejoin:miter;stroke-opacity:1"
     sodipodi:nodetypes="ccccc" />
  <path
     style="fill:#c6c6c6;fill-opacity:1;fill-rule:evenodd;stroke:#000000;stroke-width:2.03192711px;stroke-linecap:butt;stroke-linejoin:miter;stroke-opacity:1"
     d="M 230.72992,365.87557 L 303.85733,557.68521 L 389.88708,366.50803 L 390.56072,366.55802 C 338.15335,357.92484 285.61982,350.51095 230.72992,365.87557 z "
     id="path2177"
     sodipodi:nodetypes="ccccc" />
  <path
     id="path2179"
     d="M 265.25218,456.42578 L 303.85733,557.68521 L 349.42408,456.42578 L 349.10765,456.10934 C 321.9957,451.17548 294.83923,446.50891 265.25218,456.42578 z "
     style="fill:#eaeaeb;fill-opacity:1;fill-rule:evenodd;stroke:#000000;stroke-width:2.03192711px;stroke-linecap:butt;stroke-linejoin:miter;stroke-opacity:1"
     sodipodi:nodetypes="ccccc" />
  <path
     style="fill:none;fill-rule:evenodd;stroke:#a2a2a2;stroke-width:2.03192711px;stroke-linecap:butt;stroke-linejoin:miter;stroke-opacity:1"
     d="M 114.18242,60.177108 L 303.85733,557.68521 L 527.43994,60.835055"
     id="path2161"
     sodipodi:nodetypes="ccc" />
  <path
     style="fill:none;fill-rule:evenodd;stroke:#000000;stroke-width:2.03192711px;stroke-linecap:butt;stroke-linejoin:miter;stroke-opacity:1"
     d="M 376.81465,170.63468 C 378.22995,166.36474 383.19979,163.97102 387.55484,161.23702 C 394.86965,158.40336 398.25669,163.90317 401.42757,167.05462"
     id="path6135"
     sodipodi:nodetypes="ccc" />
  <path
     style="fill:none;fill-rule:evenodd;stroke:#000000;stroke-width:2.03192711px;stroke-linecap:butt;stroke-linejoin:miter;stroke-opacity:1"
     d="M 394.26745,180.03234 C 399.47829,178.83951 398.96841,174.39072 406.79769,171.97721 C 411.58585,173.17425 413.22053,175.71502 414.85282,177.3473"
     id="path6137"
     sodipodi:nodetypes="ccc" />
  <path
     style="fill:none;fill-rule:evenodd;stroke:#000000;stroke-width:2.03192711px;stroke-linecap:butt;stroke-linejoin:miter;stroke-opacity:1"
     d="M 406.35016,169.29217 C 407.45746,169.56899 412.40283,165.5358 413.9578,164.36958 C 418.78568,166.49215 423.78968,172.83212 437.6757,176.45228 C 438.51653,177.29311 439.61925,178.13369 440.36075,178.68983"
     id="path6139"
     sodipodi:nodetypes="cccc" />
  <path
     style="fill:none;fill-rule:evenodd;stroke:#000000;stroke-width:2.03192711px;stroke-linecap:butt;stroke-linejoin:miter;stroke-opacity:1"
     d="M 426.48802,171.5297 C 428.04539,173.08707 430.1032,168.40875 432.30561,168.39715 C 434.78633,168.38407 439.14653,167.82443 443.4933,174.21474"
     id="path6141"
     sodipodi:nodetypes="css" />
  <path
     style="fill:none;fill-rule:evenodd;stroke:#000000;stroke-width:2.03192711px;stroke-linecap:butt;stroke-linejoin:miter;stroke-opacity:1"
     d="M 443.04581,173.31973 C 445.22346,174.95299 448.43171,171.44337 451.10093,171.97721 C 453.81737,172.5205 457.63725,176.21721 459.15608,178.24232 C 466.5409,185.11247 474.26112,186.36773 483.76902,186.74496 C 488.37625,186.21972 493.07252,186.20637 497.64175,185.40244"
     id="path6143"
     sodipodi:nodetypes="csccc" />
  <path
     style="fill:none;fill-rule:evenodd;stroke:#000000;stroke-width:2.03192711px;stroke-linecap:butt;stroke-linejoin:miter;stroke-opacity:1"
     d="M 413.51028,164.36958 C 415.28863,164.36958 419.66418,158.60759 421.56543,157.65696 C 425.76504,155.55716 427.51536,158.65122 430.96309,161.23702"
     id="path6145"
     sodipodi:nodetypes="csc" />
  <path
     style="fill:none;fill-rule:evenodd;stroke:#000000;stroke-width:2.03192711px;stroke-linecap:butt;stroke-linejoin:miter;stroke-opacity:1"
     d="M 385.76481,157.20946 C 392.27466,156.14456 398.81699,154.09535 404.11262,150.04933 C 409.27923,145.87486 413.85197,150.5491 419.7754,149.60183 C 423.25807,148.90528 424.88828,147.29999 428.72556,148.2593 C 436.54815,152.94394 445.16919,152.64882 453.78598,151.83936 C 466.9374,153.54559 498.73297,157.47875 499.43175,161.68453 C 516.29328,163.61933 537.01263,158.75094 538.81245,157.20946"
     id="path6147"
     sodipodi:nodetypes="ccccccc" />
  <path
     style="fill:none;fill-rule:evenodd;stroke:#000000;stroke-width:2.03192711px;stroke-linecap:butt;stroke-linejoin:miter;stroke-opacity:1"
     d="M 421.56543,140.20416 C 426.40247,143.33815 428.00402,144.94549 435.43817,144.67924 C 437.88839,145.16928 440.41013,148.50774 442.59829,149.60183"
     id="path6149"
     sodipodi:nodetypes="ccc" />
  <path
     style="fill:none;fill-rule:evenodd;stroke:#000000;stroke-width:2.03192711px;stroke-linecap:butt;stroke-linejoin:miter;stroke-opacity:1"
     d="M 437.2282,141.54668 C 439.71483,142.04401 441.48065,138.58167 443.94081,137.96662"
     id="path6151" />
  <path
     style="fill:none;fill-rule:evenodd;stroke:#000000;stroke-width:2.03192711px;stroke-linecap:butt;stroke-linejoin:miter;stroke-opacity:1"
     d="M 453.33847,149.15431 C 455.41739,149.5701 455.30925,144.74593 457.36605,144.23173"
     id="path6153" />
  <path
     style="fill:none;fill-rule:evenodd;stroke:#000000;stroke-width:2.03192711px;stroke-linecap:butt;stroke-linejoin:miter;stroke-opacity:1"
     d="M 444.83583,167.05462 C 453.4827,165.65138 457.64808,155.80229 466.76371,159.44699 C 469.78964,164.64383 472.65066,168.86996 478.8464,170.18718"
     id="path6155"
     sodipodi:nodetypes="ccc" />
  <path
     style="fill:none;fill-rule:evenodd;stroke:#000000;stroke-width:2.03192711px;stroke-linecap:butt;stroke-linejoin:miter;stroke-opacity:1"
     d="M 502.56432,139.30915 C 505.49481,140.9514 505.31827,148.0892 512.85701,150.49684"
     id="path6157"
     sodipodi:nodetypes="cc" />
  <path
     style="fill:none;fill-rule:evenodd;stroke:#000000;stroke-width:2.03192711px;stroke-linecap:butt;stroke-linejoin:miter;stroke-opacity:1"
     d="M 538.36495,140.20416 C 529.31968,144.58672 525.09156,155.74054 529.41479,154.52441"
     id="path6159"
     sodipodi:nodetypes="cc" />
  <path
     style="fill:url(#linearGradient2250);fill-opacity:1;fill-rule:evenodd;stroke:#9b9b9b;stroke-width:2.03192711px;stroke-linecap:butt;stroke-linejoin:miter;stroke-opacity:1"
     d="M 693.70618,662.74189 C 882.42583,706.62078 1022.6451,520.74959 962.0437,329.85148 C 935.84281,271.63805 885.93464,211.22148 820.28048,200.7457 C 766.50049,303.05773 498.1999,617.28504 693.70618,662.74189 z "
     id="path6187"
     sodipodi:nodetypes="cccs" />
  <path
     style="fill:#f27d52;fill-opacity:1;fill-rule:evenodd;stroke:#f27d52;stroke-width:2.03192711px;stroke-linecap:butt;stroke-linejoin:miter;stroke-opacity:1"
     d="M 758.25906,186.82252 C 551.74243,209.04951 526.42653,444.4042 534.22255,447.56558 C 532.00703,682.10103 752.67746,720.34691 872.17594,531.10462 C 899.57629,480.72444 921.62765,410.03375 916.47694,353.9006 C 903.06732,259.45975 858.95215,186.52327 758.25906,186.82252 z "
     id="path6177"
     sodipodi:nodetypes="ccccc" />
  <path
     style="fill:#f6d485;fill-opacity:1;fill-rule:evenodd;stroke:#f6d485;stroke-width:2.03192711px;stroke-linecap:butt;stroke-linejoin:miter;stroke-opacity:1"
     d="M 569.63858,362.53647 C 535.95709,472.73953 558.50018,623.7564 676.14542,629.25105 C 799.1495,627.61895 880.04124,547.31332 900.79428,390.28194 C 910.06521,320.13195 864.81918,208.25982 755.80178,205.01374 C 672.17895,218.69984 600.30673,279.07204 569.63858,362.53647 z "
     id="path6173"
     sodipodi:nodetypes="ccscc" />
  <path
     style="fill:#d6d6d6;fill-opacity:1;fill-rule:evenodd;stroke:#d6d6d6;stroke-width:2.03192711px;stroke-linecap:butt;stroke-linejoin:miter;stroke-opacity:1"
     d="M 630.41904,373.5196 C 604.3028,430.68213 607.55831,537.87622 682.31449,557.05234 C 757.39145,567.68764 812.90284,511.67543 833.57078,429.84518 C 862.91569,270.25419 703.17366,223.06828 630.41904,373.5196 z "
     id="path6170"
     sodipodi:nodetypes="cccc" />
  <path
     style="fill:#ffffff;fill-opacity:1;fill-rule:evenodd;stroke:#ffffff;stroke-width:2.03192711px;stroke-linecap:butt;stroke-linejoin:miter;stroke-opacity:1"
     d="M 734.76893,372.38164 C 715.06377,373.04685 700.0893,390.45769 693.59821,402.81217 C 685.76306,422.80415 683.29752,449.78259 705.23341,464.56823 C 726.08762,478.62481 757.39602,451.29867 763.4094,416.6849 C 765.12273,394.86347 754.59907,375.49433 734.76893,372.38164 z "
     id="path6166"
     sodipodi:nodetypes="ccscc" />
  <path
     style="opacity:0.25;fill:#000000;fill-rule:evenodd;stroke:#000000;stroke-width:2.03192711px;stroke-linecap:butt;stroke-linejoin:miter;stroke-opacity:1"
     d="M 872.8088,238.08512 L 726.6155,412.12476 M 725.98263,412.12476 L 753.1193,186.52858 C 800.27844,186.16655 842.50078,198.63735 872.8088,238.71799"
     id="path6197"
     sodipodi:nodetypes="ccccc" />
  <path
     style="fill:none;fill-rule:evenodd;stroke:#b6b6b6;stroke-width:2.03192711px;stroke-linecap:butt;stroke-linejoin:miter;stroke-opacity:1"
     d="M 302.5916,557.68521 L 725.34975,412.12476"
     id="path7214" />
  <path
     style="fill:none;fill-rule:evenodd;stroke:#b6b6b6;stroke-width:2.03192711px;stroke-linecap:butt;stroke-linejoin:miter;stroke-opacity:1"
     d="M 460.80946,205.80866 L 872.17594,236.18649"
     id="path7218"
     sodipodi:nodetypes="cc" />
  <g
     style="font-size:28.44697762px;font-style:normal;font-weight:normal;fill:#000000;fill-opacity:1;stroke:none;font-family:Arial"
     id="text7236">
    <path
       d="m 24.197675,485.20383 0,-20.36293 2.694684,0 0,20.36293 z"
       style=""
       id="path3218" />
    <path
       d="m 31.309419,485.20383 0,-14.75132 2.2502,0 0,2.09741 c 1.083425,-1.6205 2.648377,-2.43075 4.694863,-2.43077 0.888958,2e-5 1.70616,0.15975 2.451607,0.47921 0.745425,0.31949 1.303344,0.73851 1.67376,1.25706 0.37039,0.51857 0.629672,1.13437 0.777847,1.84738 0.09259,0.46302 0.138887,1.27327 0.138901,2.43077 l 0,9.07026 -2.500222,0 0,-8.97302 c -1.2e-5,-1.0186 -0.09724,-1.78024 -0.291693,-2.28493 -0.194473,-0.50466 -0.53941,-0.90748 -1.034814,-1.20844 -0.495424,-0.30094 -1.076494,-0.45142 -1.743211,-0.45143 -1.064917,1e-5 -1.983979,0.33801 -2.75719,1.01398 -0.773222,0.676 -1.15983,1.95852 -1.159826,3.84756 l 0,8.05628 z"
       style=""
       id="path3220" />
    <path
       d="m 47.144162,485.20383 0,-14.75132 2.250201,0 0,2.09741 c 1.083424,-1.6205 2.648377,-2.43075 4.694862,-2.43077 0.888959,2e-5 1.70616,0.15975 2.451607,0.47921 0.745425,0.31949 1.303345,0.73851 1.673761,1.25706 0.37039,0.51857 0.629672,1.13437 0.777847,1.84738 0.09259,0.46302 0.138887,1.27327 0.138901,2.43077 l 0,9.07026 -2.500223,0 0,-8.97302 c -1.1e-5,-1.0186 -0.09724,-1.78024 -0.291692,-2.28493 -0.194473,-0.50466 -0.539411,-0.90748 -1.034815,-1.20844 -0.495424,-0.30094 -1.076494,-0.45142 -1.743211,-0.45143 -1.064916,1e-5 -1.983979,0.33801 -2.75719,1.01398 -0.773221,0.676 -1.159829,1.95852 -1.159825,3.84756 l 0,8.05628 z"
       style=""
       id="path3222" />
    <path
       d="m 73.077027,480.4534 2.583564,0.31948 c -0.407458,1.50939 -1.162154,2.68079 -2.264091,3.5142 -1.101961,0.83341 -2.509492,1.25011 -4.222598,1.25011 -2.157606,0 -3.868404,-0.66441 -5.132402,-1.99323 -1.264003,-1.32882 -1.896003,-3.19241 -1.896002,-5.59078 -1e-6,-2.48169 0.638944,-4.40779 1.916838,-5.77829 1.277887,-1.37048 2.93544,-2.05572 4.972665,-2.05574 1.972388,2e-5 3.583641,0.67137 4.833763,2.01407 1.250098,1.34272 1.875153,3.23178 1.875167,5.66717 -1.4e-5,0.14817 -0.0046,0.37041 -0.01389,0.66673 l -11.000979,0 c 0.0926,1.62052 0.55097,2.86137 1.375122,3.72255 0.824142,0.86119 1.85201,1.29178 3.083608,1.29178 0.916739,0 1.699216,-0.24076 2.347431,-0.72229 0.648195,-0.48152 1.162129,-1.2501 1.541804,-2.30576 z m -8.209064,-4.04202 8.236844,0 c -0.111132,-1.24084 -0.425975,-2.17148 -0.944528,-2.79192 -0.796378,-0.96303 -1.828876,-1.44456 -3.097498,-1.44457 -1.148257,10e-6 -2.11362,0.38431 -2.896091,1.15288 -0.782482,0.7686 -1.21539,1.79647 -1.298727,3.08361 z"
       style=""
       id="path3224" />
    <path
       d="m 78.785869,485.20383 0,-14.75132 2.2502,0 0,2.23631 c 0.574121,-1.04637 1.10426,-1.73625 1.59042,-2.06963 0.486148,-0.33334 1.020917,-0.50002 1.604309,-0.50004 0.84266,2e-5 1.699217,0.26856 2.569674,0.80563 l -0.861188,2.31965 c -0.611174,-0.36113 -1.222339,-0.5417 -1.833497,-0.54172 -0.546351,2e-5 -1.037135,0.16438 -1.472353,0.4931 -0.435229,0.32875 -0.745442,0.78481 -0.930639,1.36818 -0.277807,0.88898 -0.416708,1.86129 -0.416703,2.91693 l 0,7.72291 z"
       style=""
       id="path3226" />
    <path
       d="m 111.05263,478.0643 2.69468,0.68062 c -0.56488,2.21316 -1.58117,3.90081 -3.04888,5.06295 -1.46774,1.16214 -3.26188,1.74321 -5.38242,1.74321 -2.19465,0 -3.97953,-0.4468 -5.354647,-1.3404 -1.375127,-0.89359 -2.421516,-2.18769 -3.139169,-3.88229 -0.717658,-1.69459 -1.076486,-3.51419 -1.076485,-5.45882 -1e-6,-2.12054 0.405127,-3.97024 1.215386,-5.5491 0.810254,-1.57883 1.963134,-2.77801 3.458645,-3.59754 1.49549,-0.8195 3.14147,-1.22926 4.93794,-1.22928 2.0372,2e-5 3.75032,0.51858 5.13934,1.55569 1.389,1.03715 2.35668,2.49561 2.90304,4.37539 l -2.65301,0.62506 c -0.47228,-1.4816 -1.15753,-2.5604 -2.05574,-3.2364 -0.89824,-0.67597 -2.02797,-1.01396 -3.38919,-1.01398 -1.56497,2e-5 -2.87295,0.37505 -3.92396,1.1251 -1.05103,0.75008 -1.789521,1.75712 -2.21548,3.0211 -0.425968,1.26402 -0.63895,2.56737 -0.638945,3.91007 -5e-6,1.73165 0.252332,3.24335 0.757011,4.53513 0.50467,1.29179 1.289464,2.25715 2.354374,2.89609 1.0649,0.63895 2.21778,0.95842 3.45864,0.95842 1.50939,0 2.78728,-0.43522 3.83368,-1.30567 1.04637,-0.87045 1.75477,-2.16223 2.12519,-3.87535 z"
       style=""
       id="path3228" />
    <path
       d="m 115.83083,477.82817 c 0,-2.73171 0.75933,-4.75504 2.27798,-6.06998 1.26863,-1.09268 2.81506,-1.63902 4.63931,-1.63904 2.02794,2e-5 3.6855,0.66443 4.97266,1.99323 1.28714,1.32884 1.93071,3.16465 1.93073,5.50744 -2e-5,1.89832 -0.28476,3.39151 -0.85424,4.47956 -0.56951,1.08807 -1.39829,1.93305 -2.48634,2.53495 -1.08807,0.60191 -2.27567,0.90286 -3.56281,0.90286 -2.06501,0 -3.73414,-0.6621 -5.00739,-1.98629 -1.27327,-1.32419 -1.9099,-3.23176 -1.9099,-5.72273 z m 2.56968,0 c -1e-5,1.88906 0.41207,3.30354 1.23622,4.24343 0.82414,0.9399 1.86127,1.40985 3.11139,1.40985 1.24084,0 2.27334,-0.47226 3.09749,-1.41679 0.82414,-0.94453 1.23621,-2.38447 1.23623,-4.31983 -2e-5,-1.82423 -0.41441,-3.20629 -1.24317,-4.1462 -0.82879,-0.93989 -1.85897,-1.40984 -3.09055,-1.40985 -1.25012,10e-6 -2.28725,0.46765 -3.11139,1.4029 -0.82415,0.93528 -1.23623,2.34744 -1.23622,4.23649 z"
       style=""
       id="path3230" />
    <path
       d="m 132.56844,485.20383 0,-14.75132 2.2502,0 0,2.23631 c 0.57412,-1.04637 1.10426,-1.73625 1.59042,-2.06963 0.48615,-0.33334 1.02092,-0.50002 1.60431,-0.50004 0.84266,2e-5 1.69921,0.26856 2.56967,0.80563 l -0.86119,2.31965 c -0.61117,-0.36113 -1.22234,-0.5417 -1.83349,-0.54172 -0.54635,2e-5 -1.03714,0.16438 -1.47236,0.4931 -0.43523,0.32875 -0.74544,0.78481 -0.93063,1.36818 -0.27781,0.88898 -0.41671,1.86129 -0.41671,2.91693 l 0,7.72291 z"
       style=""
       id="path3232" />
    <path
       d="m 152.19518,480.4534 2.58356,0.31948 c -0.40745,1.50939 -1.16215,2.68079 -2.26409,3.5142 -1.10196,0.83341 -2.50949,1.25011 -4.2226,1.25011 -2.1576,0 -3.8684,-0.66441 -5.1324,-1.99323 -1.264,-1.32882 -1.896,-3.19241 -1.896,-5.59078 0,-2.48169 0.63894,-4.40779 1.91684,-5.77829 1.27789,-1.37048 2.93544,-2.05572 4.97266,-2.05574 1.97239,2e-5 3.58364,0.67137 4.83377,2.01407 1.25009,1.34272 1.87515,3.23178 1.87516,5.66717 -1e-5,0.14817 -0.005,0.37041 -0.0139,0.66673 l -11.00098,0 c 0.0926,1.62052 0.55098,2.86137 1.37513,3.72255 0.82414,0.86119 1.85201,1.29178 3.0836,1.29178 0.91674,0 1.69922,-0.24076 2.34744,-0.72229 0.64819,-0.48152 1.16212,-1.2501 1.5418,-2.30576 z m -8.20906,-4.04202 8.23684,0 c -0.11113,-1.24084 -0.42598,-2.17148 -0.94453,-2.79192 -0.79638,-0.96303 -1.82887,-1.44456 -3.0975,-1.44457 -1.14825,10e-6 -2.11362,0.38431 -2.89609,1.15288 -0.78248,0.7686 -1.21539,1.79647 -1.29872,3.08361 z"
       style=""
       id="path3234" />
  </g>
  <path
     style="fill:none;fill-rule:evenodd;stroke:#ff0000;stroke-width:2.03192711px;stroke-linecap:butt;stroke-linejoin:miter;stroke-opacity:1"
     d="M 23.015964,218.10679 L 193.96391,218.10679"
     id="path7240" />
  <path
     id="path7246"
     d="m 23.015964,429.10793 c 0,0 187.839216,0 250.937816,0"
     style="fill:none;stroke:#ff0000;stroke-width:2.03192711px;stroke-linecap:butt;stroke-linejoin:miter;stroke-opacity:1"
     sodipodi:nodetypes="cs"
     inkscape:connector-curvature="0" />
  <path
     sodipodi:nodetypes="cs"
     style="fill:none;fill-rule:evenodd;stroke:#ff0000;stroke-width:2.03192711px;stroke-linecap:butt;stroke-linejoin:miter;stroke-opacity:1"
     d="M 23.015964,490.385 C 23.015964,490.385 245.03023,490.385 308.12885,490.385"
     id="path7248" />
  <g
     style="font-size:40px;font-style:normal;font-variant:normal;font-weight:600;font-stretch:normal;text-align:start;line-height:125%;letter-spacing:0px;word-spacing:0px;writing-mode:lr-tb;text-anchor:start;fill:#000000;fill-opacity:1;fill-rule:nonzero;stroke:none;font-family:Hiragino Kaku Gothic Pro;-inkscape-font-specification:Hiragino Kaku Gothic Pro Semi-Bold"
     id="text3435">
    <path
       d="m 55.791236,207.21982 c -0.559999,-1.04 -1.080001,-2.16 -2.08,-4.76 l -8.92,-23.24 c -0.919999,-2.44 -1.2,-3.08 -1.4,-4.08 l -7,0 c -0.2,1.08 -0.520001,2.08 -1.28,4.08 l -8.88,23.24 c -0.719999,1.88 -1.520001,3.68 -2.12,4.76 l 6.6,0 c 0.32,-1.68 0.480001,-2.28 1.2,-4.24 l 1.64,-4.36 12.88,0 1.6,4.36 c 0.44,1.2 0.88,2.92 1.12,4.24 l 6.64,0 m -10.8,-13.24 -10,0 4.2,-11.92 c 0.12,-0.36 0.120001,-0.36 0.76,-2.28 0.44,1.36 0.56,1.84 0.72,2.28 l 4.32,11.92"
       style="fill:#000000"
       id="path5464" />
    <path
       d="m 64.089361,184.09982 -5.36,0 c 0.2,1.72 0.28,3.08 0.28,5.4 l 0,20.28 c 0,2.04 -0.08,3.4 -0.28,5.28 l 5.68,0 c -0.2,-1.68 -0.28,-2.96 -0.28,-5.32 l 0,-3.08 c 0,-0.72 0,-1.44 -0.04,-1.72 -0.04,-0.8 -0.04,-0.8 -0.04,-1.32 1.959998,2.64 4.600004,3.88 8.16,3.88 6.839993,0 10.92,-4.48001 10.92,-11.88 0,-4.07999 -1.040002,-7.08 -3.2,-9.28 -1.839998,-1.84 -4.440003,-2.8 -7.64,-2.8 -3.639996,0 -6.000002,1.12001 -8.24,3.96 0.04,-0.52 0.04,-1 0.04,-1.44 l 0,-1.96 m 13.8,11.44 c 0,4.76 -2.480004,7.72 -6.4,7.72 -4.199996,0 -7.2,-3.2 -7.2,-7.8 0,-4.31999 3.040004,-7.6 7.04,-7.6 4.039996,0 6.56,2.92001 6.56,7.68"
       style="fill:#000000"
       id="path5466" />
    <path
       d="m 92.604986,184.09982 -5.36,0 c 0.2,1.72 0.28,3.08 0.28,5.4 l 0,20.28 c 0,2.04 -0.08,3.4 -0.28,5.28 l 5.68,0 c -0.2,-1.68 -0.28,-2.96 -0.28,-5.32 l 0,-3.08 c 0,-0.72 0,-1.44 -0.04,-1.72 -0.04,-0.8 -0.04,-0.8 -0.04,-1.32 1.959998,2.64 4.600004,3.88 8.160004,3.88 6.83999,0 10.92,-4.48001 10.92,-11.88 0,-4.07999 -1.04001,-7.08 -3.2,-9.28 -1.84,-1.84 -4.44001,-2.8 -7.64,-2.8 -3.64,0 -6.000006,1.12001 -8.240004,3.96 0.04,-0.52 0.04,-1 0.04,-1.44 l 0,-1.96 m 13.800004,11.44 c 0,4.76 -2.48001,7.72 -6.4,7.72 -4.2,0 -7.200004,-3.2 -7.200004,-7.8 0,-4.31999 3.040004,-7.6 7.04,-7.6 4.039994,0 6.560004,2.92001 6.560004,7.68"
       style="fill:#000000"
       id="path5468" />
  </g>
  <g
     style="font-size:40px;font-style:normal;font-variant:normal;font-weight:600;font-stretch:normal;text-align:start;line-height:125%;letter-spacing:0px;word-spacing:0px;writing-mode:lr-tb;text-anchor:start;fill:#000000;fill-opacity:1;fill-rule:nonzero;stroke:none;font-family:Hiragino Kaku Gothic Pro;-inkscape-font-specification:Hiragino Kaku Gothic Pro Semi-Bold"
     id="text3439">
    <path
       d="m 23.257955,411.85117 c 0,2.43999 -0.08,3.68 -0.32,5.32 1.639998,-0.08 2.640002,-0.12 5.08,-0.12 l 7.36,0 c 4.759995,0 7.960002,-1.08001 10.56,-3.52 3.119997,-2.96 4.72,-7.32001 4.72,-12.8 0,-5.24 -1.520003,-9.40001 -4.44,-12.2 -2.599998,-2.48 -5.840005,-3.56 -10.88,-3.56 l -7.32,0 c -2.519998,0 -3.480002,-0.04 -5.08,-0.12 0.24,1.8 0.32,3 0.32,5.24 l 0,21.76 m 5.32,0.44 0,-22.56 6.48,0 c 3.479996,0 5.600001,0.68 7.24,2.44 1.839998,1.92 2.76,4.8 2.76,8.6 0,3.79999 -1.000002,6.88 -2.92,8.96 -1.679999,1.8 -3.840003,2.56 -7.12,2.56 l -6.44,0"
       style="fill:#000000"
       id="path5455" />
    <path
       d="m 62.757955,415.45117 -1.36,3.08 c -0.6,1.28 -1.760002,2.04 -3.16,2.04 -0.919999,0 -1.680001,-0.2 -2.8,-0.68 l -0.96,4.56 c 1.879998,0.36 3.040001,0.48 4.24,0.48 3.759996,0 6.120001,-1.40001 7.4,-4.44 l 9.2,-21.56 c 1.199999,-2.84 1.92,-4.48 2.16,-5 l -6,0 c -0.24,1.28 -0.560001,2.28 -1.52,4.76 l -4.48,11.4 -4.92,-11.44 c -0.719999,-1.64 -1.32,-3.56 -1.52,-4.72 l -6.12,0 c 0.479999,0.88 0.520002,1 2.28,5 l 7.56,16.52"
       style="fill:#000000"
       id="path5457" />
    <path
       d="m 86.150455,417.05117 c -0.24,-1.72 -0.32,-3.24001 -0.32,-5.24 l 0,-8.12 c 1.799998,-4 4.160003,-6 7.08,-6 1.519998,0 2.72,0.6 3.36,1.64 0.479999,0.76 0.68,1.84 0.68,3.56 l 0,8.92 c 0,2.07999 -0.08,3.44 -0.28,5.24 l 5.839995,0 c -0.23999,-1.48 -0.32,-3.00001 -0.32,-5.24 l 0,-9.68 c 0,-2.68 -0.4,-4.28 -1.36,-5.64 -1.439994,-1.96 -3.759998,-2.96 -6.839995,-2.96 -3.639997,0 -5.760003,1.12 -8.24,4.28 0.08,-1 0.08,-1.12 0.08,-1.76 l 0,-2.12 -5.48,0 c 0.24,1.64 0.32,3.04 0.32,5.24 l 0,12.64 c 0,2.27999 -0.08,3.52 -0.32,5.24 l 5.8,0"
       style="fill:#000000"
       id="path5459" />
    <path
       d="m 118.53983,417.81117 c 7.19999,0 11.88,-4.92001 11.88,-12.36 0,-7.44 -4.60001,-12.2 -11.92,-12.2 -7.31999,0 -12,4.8 -12,12.28 0,7.51999 4.68001,12.28 12.04,12.28 m -0.04,-20.36 c 4.28,0 6.76,2.96 6.76,8.16 0,4.91999 -2.6,7.92 -6.8,7.92 -4.16,0 -6.76,-3.04001 -6.76,-8 0,-5.04 2.6,-8.08 6.8,-8.08"
       style="fill:#000000"
       id="path5461" />
  </g>
  <g
     style="font-size:40px;font-style:normal;font-variant:normal;font-weight:600;font-stretch:normal;text-align:start;line-height:125%;letter-spacing:0px;word-spacing:0px;writing-mode:lr-tb;text-anchor:start;fill:#000000;fill-opacity:1;fill-rule:nonzero;stroke:none;font-family:Hiragino Kaku Gothic Pro;-inkscape-font-specification:Hiragino Kaku Gothic Pro Semi-Bold"
     id="text3443">
    <path
       d="m 47.463498,281.36723 c -0.32,1.87999 -0.640001,2.72 -1.32,3.72 -1.279999,1.87999 -3.720003,2.96 -6.52,2.96 -5.639995,0 -9.2,-4.56001 -9.2,-11.96 0,-7.4 3.480005,-11.88 9.2,-11.88 2.479997,0 4.520001,0.84 5.88,2.52 0.799999,0.91999 1.16,1.68 1.72,3.44 l 5.6,-1.28 c -0.48,-1.52 -0.760001,-2.24001 -1.24,-3.12 -0.999999,-1.76 -2.440002,-3.24001 -4.28,-4.36 -2.199998,-1.36 -4.600004,-1.96 -7.72,-1.96 -4.039996,0 -7.640003,1.4 -10.08,3.84 -2.999997,3.03999 -4.72,7.68 -4.72,13 0,5.15999 1.600002,9.72 4.4,12.68 2.479997,2.51999 5.960004,3.84 10.36,3.84 4.839995,0 8.680002,-1.56001 11,-4.4 1.199998,-1.56 1.92,-3.12001 2.68,-6.04 l -5.76,-1"
       style="fill:#000000"
       id="path5471" />
    <path
       d="m 79.096623,281.92723 c -0.08,-0.92 -0.08,-1.04 -0.08,-1.12 -0.12,-2.72 -0.400001,-4.20001 -1.16,-6.12 -1.599999,-4.04 -5.320005,-6.36 -10.04,-6.36 -6.879994,0 -11.36,4.88 -11.36,12.32 0,7.51999 4.520007,12.28 11.64,12.28 3.399996,0 6.200002,-1.04001 8.32,-3.08 0.999999,-1.04 1.520001,-1.80001 2.44,-3.72 l -4.76,-1.52 c -0.4,1.07999 -0.680001,1.52 -1.16,2.08 -1.159999,1.27999 -2.840002,2 -4.84,2 -2.039998,0 -3.840002,-0.80001 -5.04,-2.24 -0.919999,-1.16 -1.280001,-2.28001 -1.48,-4.52 l 17.52,0 m -17.4,-3.96 c 0.599999,-3.4 2.920003,-5.48 6.04,-5.48 1.919998,0 3.280001,0.52 4.36,1.6 0.999999,0.99999 1.48,2.08 1.76,3.88 l -12.16,0"
       style="fill:#000000"
       id="path5473" />
    <path
       d="m 101.16162,292.16723 5.36,0 c -0.2,-1.76 -0.32,-3.04001 -0.32,-5.44 l 0,-21.24 c 0,-2.04 0.12,-3.44001 0.32,-5.4 l -5.68,0 c 0.2,1.71999 0.28,3.04 0.28,5.44 l 0,4.04 c 0,0.67999 0,1.44 0.04,1.72 0.04,0.83999 0.04,0.84 0.04,1.32 -0.92,-1.2 -1.359998,-1.68001 -2.079997,-2.24 -1.559999,-1.24 -3.600003,-1.84 -6.12,-1.84 -6.639994,0 -10.88,4.68 -10.88,12.04 0,4.35999 1.520002,8 4.2,10.12 1.759998,1.39999 3.920002,2.04 6.72,2.04 3.919996,0 6.040002,-1.04001 8.159997,-4 -0.04,0.55999 -0.04,1 -0.04,1.48 l 0,1.96 m -13.799997,-11.56 c 0,-4.8 2.520003,-7.84 6.4,-7.84 1.959998,0 4.000001,0.88 5.24,2.24 1.159997,1.27999 1.959997,3.4 1.959997,5.36 0,2.07999 -0.6,4.08 -1.599997,5.4 -1.199999,1.63999 -3.240003,2.64 -5.4,2.64 -3.999996,0 -6.6,-3.00001 -6.6,-7.8"
       style="fill:#000000"
       id="path5475" />
    <path
       d="m 126.87725,292.16723 5.44,0 c -0.24,-1.8 -0.32,-2.88001 -0.32,-5.04 l 0,-10.84 c 0,-2.72 -0.52,-4.24001 -1.88,-5.56 -1.76,-1.68 -4.08001,-2.36 -7.96,-2.36 -3.44,0 -5.72,0.6 -7.68,2.04 -1.52,1.07999 -2.24,2.16 -3.2,4.48 l 5.16,0.92 c 0.48,-1.44 0.84,-2.00001 1.64,-2.56 0.92,-0.72 2.56,-1.16 4.16,-1.16 3.07999,0 4.64,1.2 4.64,3.52 l 0,2.08 c -5.76,0.12 -8.72001,0.52 -11.36,1.6 -2.76,1.15999 -4.56,3.68 -4.56,6.52 0,4.23999 3,6.76 7.92,6.76 1.28,0 2.56,-0.16 3.72,-0.48 1.68,-0.44 2.68,-1.00001 4.28,-2.52 l 0,2.6 m 0,-8.96 c 0,1.39999 -0.48,2.56 -1.44,3.52 -1.36,1.31999 -3.48,2.16 -5.6,2.16 -2.28,0 -3.68,-1.20001 -3.68,-3.08 0,-3.16 3.04001,-4.48 10.72,-4.64 l 0,2.04"
       style="fill:#000000"
       id="path5477" />
    <path
       d="m 153.98412,269.04723 c -1.8,-0.32 -2.76,-0.44 -3.72,-0.44 -3.63999,0 -6.12,1.36 -7.6,4.24 l 0,-3.8 -5.48,0 c 0.24,1.63999 0.32,2.8 0.32,5.24 l 0,12.64 c 0,2.11999 -0.12,3.28 -0.32,5.24 l 5.76,0 c -0.2,-1.88 -0.28,-3.04001 -0.28,-5.24 l 0,-7.44 c 0.24,-1.92 0.68,-2.88001 1.68,-4.04 1.12,-1.32 2.64,-1.96 4.68,-1.96 1.04,0 1.88,0.16 3.56,0.64 l 1.4,-5.08"
       style="fill:#000000"
       id="path5479" />
    <path
       d="m 51.658498,332.76723 c 0.239999,1.67999 0.4,2.44 0.76,3.36 0.799999,1.95999 1.960001,3.52 3.56,4.6 1.919998,1.27999 5.160003,2.08 8.48,2.08 4.279995,0 7.480002,-1.00001 9.6,-3.04 1.679998,-1.68 2.56,-4.00001 2.56,-6.88 0,-3 -1.080003,-5.20001 -3.36,-6.92 -1.439999,-1 -3.360004,-1.76001 -6.56,-2.44 -4.479996,-1 -4.800001,-1.08001 -5.68,-1.44 -1.839999,-0.84 -2.76,-2.00001 -2.76,-3.68 0,-2.64 2.400003,-4.4 5.92,-4.4 2.199997,0 3.960001,0.68 5,1.92 0.719999,0.83999 1,1.52 1.24,2.88 l 5.76,-0.68 c -0.48,-2.12 -1.000001,-3.36001 -2,-4.68 -1.959998,-2.64 -5.440005,-4.08 -10,-4.08 -6.959993,0 -11.44,3.64 -11.44,9.24 0,2.67999 1.040002,4.92 3.08,6.52 1.439998,1.11999 3.080003,1.76 6.08,2.48 5.559994,1.27999 5.800001,1.32 7,1.96 1.279998,0.67999 2.04,2.04 2.04,3.72 0,2.99999 -2.440004,4.8 -6.44,4.8 -2.639998,0 -4.720002,-0.84001 -5.88,-2.36 -0.76,-0.92 -1.000001,-1.72001 -1.16,-3.56 l -5.8,0.6"
       style="fill:#000000"
       id="path5481" />
    <path
       d="m 83.886623,312.84723 c 0.159999,1.43999 0.28,3.24 0.28,4.96 l 0,1.24 -1.48,0 c -1.719999,0 -2.480002,-0.04 -3.64,-0.24 l 0,4.76 c 1.319998,-0.2 2.080001,-0.24 3.6,-0.24 l 1.52,0 0,13.52 c 0,4.23999 1.840004,5.88 6.48,5.88 2.079998,0 3.320001,-0.20001 5.04,-0.84 l -0.72,-4.28 c -1.239999,0.67999 -1.880001,0.88 -2.96,0.88 -1.919998,0 -2.64,-0.72001 -2.64,-2.68 l 0,-12.48 1.8,0 c 1.879998,0 2.640001,0.04 3.96,0.24 l 0,-4.76 c -1.279999,0.2 -2.200002,0.24 -4.08,0.24 l -1.68,0 0,-1.24 c 0,-1.8 0.12,-3.56001 0.28,-4.96 l -5.76,0"
       style="fill:#000000"
       id="path5483" />
    <path
       d="m 113.98662,342.16723 5.44,0 c -0.24,-1.8 -0.32,-2.88001 -0.32,-5.04 l 0,-10.84 c 0,-2.72 -0.52,-4.24001 -1.88,-5.56 -1.76,-1.68 -4.08,-2.36 -7.96,-2.36 -3.43999,0 -5.72,0.6 -7.68,2.04 -1.52,1.07999 -2.239998,2.16 -3.199997,4.48 l 5.159997,0.92 c 0.48,-1.44 0.84,-2.00001 1.64,-2.56 0.92,-0.72 2.56,-1.16 4.16,-1.16 3.08,0 4.64,1.2 4.64,3.52 l 0,2.08 c -5.75999,0.12 -8.72,0.52 -11.36,1.6 -2.759995,1.15999 -4.559997,3.68 -4.559997,6.52 0,4.23999 3.000007,6.76 7.919997,6.76 1.28,0 2.56,-0.16 3.72,-0.48 1.68,-0.44 2.68,-1.00001 4.28,-2.52 l 0,2.6 m 0,-8.96 c 0,1.39999 -0.48,2.56 -1.44,3.52 -1.36,1.31999 -3.48,2.16 -5.6,2.16 -2.28,0 -3.68,-1.20001 -3.68,-3.08 0,-3.16 3.04001,-4.48 10.72,-4.64 l 0,2.04"
       style="fill:#000000"
       id="path5485" />
    <path
       d="m 145.2135,325.60723 c -0.56,-1.48 -0.88,-2.12001 -1.4,-2.92 -1.92,-2.84 -5.08001,-4.36 -9.04,-4.36 -3.28,0 -6.12,1.04 -8.08,3.04 -2.24,2.27999 -3.44,5.52 -3.44,9.32 0,7.43999 4.6,12.24 11.68,12.24 3.83999,0 6.96,-1.40001 8.88,-4.04 0.72,-1 1.12,-1.84001 1.68,-3.44 l -5,-1 c -0.24,0.99999 -0.44,1.44 -0.8,2 -1,1.43999 -2.6,2.24 -4.64,2.24 -4.04,0 -6.56,-3.08001 -6.56,-8.12 0,-5 2.48,-8.08 6.4,-8.08 1.8,0 3.2,0.64 4.16,1.84 0.52,0.63999 0.8,1.2 1.24,2.44 l 4.92,-1.16"
       style="fill:#000000"
       id="path5487" />
    <path
       d="m 149.44975,310.08723 c 0.2,1.55999 0.32,2.88 0.32,5.28 l 0,21.56 c 0,2.23999 -0.12,3.6 -0.32,5.24 l 5.68,0 c -0.24,-1.56 -0.28,-2.52001 -0.28,-5.16 l 0,-2.6 3.32,-3.16 4.36,6.36 c 1.68,2.47999 2.16,3.28 2.64,4.56 l 7.16,0 c -0.92,-0.92 -0.92001,-0.92001 -3.64,-4.68 l -6.8,-9.28 5.72,-5.44 c 1.72,-1.68 1.72,-1.68001 4,-3.72 l -7.52,0 c -0.64,0.99999 -1.32,1.8 -3.2,3.6 l -6.04,6 0,-13.28 c 0,-2.32 0.08,-3.72001 0.28,-5.28 l -5.68,0"
       style="fill:#000000"
       id="path5489" />
  </g>
  <text
     xml:space="preserve"
     style="font-size:56px;font-style:normal;font-variant:normal;font-weight:600;font-stretch:normal;text-align:start;line-height:125%;letter-spacing:0px;word-spacing:0px;writing-mode:lr-tb;text-anchor:start;fill:#000000;fill-opacity:1;stroke:none;font-family:Hiragino Kaku Gothic Pro;-inkscape-font-specification:Hiragino Kaku Gothic Pro Semi-Bold"
     x="28.654657"
     y="657.47681"
     id="text3451"
     sodipodi:linespacing="125%"><tspan
       sodipodi:role="line"
       id="tspan3453"
       x="28.654657"
       y="657.47681">Herokuの構造</tspan></text>
  <text
     xml:space="preserve"
     style="font-size:40px;font-style:normal;font-variant:normal;font-weight:300;font-stretch:normal;text-align:start;line-height:125%;letter-spacing:0px;word-spacing:0px;writing-mode:lr-tb;text-anchor:start;fill:#000000;fill-opacity:1;stroke:none;font-family:Hiragino Kaku Gothic Pro;-inkscape-font-specification:Hiragino Kaku Gothic Pro Light"
     x="407.3945"
     y="657.47681"
     id="text3455"
     sodipodi:linespacing="125%"><tspan
       sodipodi:role="line"
       id="tspan3457"
       x="407.3945"
       y="657.47681">（想像図）</tspan></text>
  <g
     transform="scale(0.61308199,1.6311032)"
     style="font-size:65.24412537px;font-style:normal;font-variant:normal;font-weight:normal;font-stretch:normal;text-align:start;line-height:125%;letter-spacing:0px;word-spacing:0px;writing-mode:lr-tb;text-anchor:start;fill:#ff0000;fill-opacity:1;stroke:none;font-family:Times New Roman;-inkscape-font-specification:'Times New Roman,'"
     id="text5493">
    <path
       d="m 326.73105,216.33448 0,1.11501 c -3.54683,-0.48849 -6.43523,-1.9327 -8.66524,-4.33262 -2.2088,-2.3787 -3.31319,-5.02286 -3.31318,-7.93251 -1e-5,-1.52916 0.24423,-3.30256 0.73273,-5.3202 0.48846,-2.03887 0.7327,-3.62113 0.73272,-4.74676 -2e-5,-1.52915 -0.64779,-2.95212 -1.94331,-4.26891 -1.27431,-1.338 -3.04771,-2.15567 -5.3202,-2.45302 l 0,-1.30616 c 2.27249,-0.29732 4.04589,-1.10437 5.3202,-2.42117 1.29552,-1.31675 1.94329,-2.75034 1.94331,-4.30076 -2e-5,-1.12561 -0.24426,-2.69724 -0.73272,-4.71491 -0.4885,-2.01761 -0.73274,-3.80162 -0.73273,-5.35205 -1e-5,-2.88838 1.10438,-5.53255 3.31318,-7.93252 2.23001,-2.39988 5.11841,-3.83347 8.66524,-4.30076 l 0,1.11502 c -2.48491,0.59471 -4.3114,1.57167 -5.47949,2.93088 -1.14689,1.33806 -1.72032,2.81412 -1.7203,4.42819 -2e-5,1.2531 0.2336,2.90969 0.70086,4.96977 0.48846,2.03891 0.7327,3.78045 0.73272,5.22463 -2e-5,2.14509 -0.78584,4.22645 -2.35745,6.24407 -1.57165,2.01765 -3.91849,3.57867 -7.0405,4.68305 3.0583,1.12564 5.38389,2.71851 6.97678,4.77862 1.6141,2.06012 2.42115,4.16272 2.42117,6.30778 -2e-5,1.44421 -0.24426,3.18575 -0.73272,5.22463 -0.46726,2.06011 -0.70088,3.7167 -0.70086,4.96976 -2e-5,1.61411 0.57341,3.09017 1.7203,4.42819 1.16809,1.35925 2.99458,2.34683 5.47949,2.96275"
       style=""
       id="path5498" />
  </g>
</svg>
